<svg width="372" height="330" viewBox="0 0 372 330" fill="none" xmlns="http://www.w3.org/2000/svg">
<path d="M116.004 48.7578C115.758 53.5369 114.597 58.2218 113.619 62.8907C111.389 73.3775 108.936 83.8151 106.569 94.2714C103.402 107.883 100.399 121.531 97.7146 135.245C96.2385 143.554 94.7404 151.902 94.2149 160.338C94.1463 161.441 94.1286 162.547 94.0853 163.652C94.1386 167.024 94.0726 165.432 94.2523 168.428C94.7297 176.886 82.768 177.562 82.2904 169.103C82.0879 165.371 82.1564 167.35 82.1143 163.163C82.1689 161.893 82.1943 160.621 82.2752 159.352C82.8428 150.474 84.3925 141.687 85.9574 132.944C88.6654 119.114 91.6904 105.351 94.8843 91.6256C97.2375 81.2324 99.6756 70.8579 101.893 60.4347C102.713 56.5224 103.686 52.6006 104.025 48.6109C104.129 40.1397 116.108 40.2864 116.004 48.7578Z" fill="#052D48"/>
<path d="M143.755 44.9576C141.78 48.3499 140.438 52.0521 139.086 55.7221C135.368 66.0467 132.768 76.7216 130.338 87.408C127.453 100.267 125.363 113.282 123.45 126.314C122.118 135.537 121.035 144.792 119.8 154.027C119.484 156.511 119.119 158.988 118.689 161.455C118.566 162.159 118.341 163.491 118.103 164.198C117.927 164.723 117.684 165.224 117.474 165.738C113.803 165.468 109.927 166.168 106.461 164.928C105.439 164.563 106.158 162.772 106.156 161.687C106.156 161.063 106.755 158.563 106.895 158.025C107.379 156.159 107.793 154.913 108.374 153.04C110.466 146.655 113.088 140.441 116.155 134.463C116.842 133.124 117.576 131.811 118.286 130.485C122.085 123.57 126.8 117.24 131.812 111.17C134.441 108.247 136.907 105.087 139.972 102.59C140.395 102.245 140.848 101.94 141.286 101.614C143.584 100.51 145.008 99.4292 148.053 100.842C149.583 101.552 150.685 103.037 151.588 104.462C152.72 106.249 152.175 109.853 151.95 111.857C150.897 118.357 149.609 124.817 148.414 131.292C147.043 139.229 145.647 147.178 144.874 155.201C144.726 156.734 144.625 158.27 144.5 159.805C144.12 166.194 144.021 172.703 145.344 179.002C145.536 179.916 145.806 180.81 146.037 181.715C146.576 182.96 146.913 184.911 148.334 185.565C148.472 185.627 148.634 185.61 148.783 185.634C155.931 190.182 149.499 200.29 142.352 195.742C141.441 195.09 140.441 194.546 139.618 193.785C136.927 191.297 135.459 188.043 134.41 184.604C134.115 183.395 133.773 182.196 133.527 180.977C132.059 173.699 132.094 166.205 132.559 158.829C132.695 157.177 132.806 155.523 132.967 153.873C133.774 145.566 135.207 137.335 136.632 129.116C137.781 122.891 139.005 116.678 140.053 110.434C140.111 110 140.164 109.565 140.225 109.132C140.251 108.961 140.181 108.51 140.312 108.622C140.582 108.853 140.507 109.339 140.759 109.589C143.022 111.836 145.03 113.619 148.252 111.361C147.36 111.914 146.62 112.701 145.89 113.443C144.201 115.161 142.609 116.97 141.046 118.803C136.532 124.257 132.274 129.939 128.842 136.151C125.307 142.721 122.081 149.474 119.814 156.599C119.328 158.156 118.962 159.263 118.55 160.798C118.432 161.234 118.337 161.676 118.229 162.115C118.185 162.291 118.163 162.809 118.099 162.641C117.86 162.038 118.321 160.872 117.686 160.74C114.133 159.998 110.432 160.437 106.806 160.286C106.708 160.581 106.617 160.878 106.511 161.17C106.463 161.307 106.608 160.894 106.637 160.751C106.726 160.328 106.798 159.901 106.873 159.476C107.282 157.139 107.626 154.792 107.925 152.44C109.167 143.153 110.255 133.847 111.596 124.573C113.556 111.233 115.7 97.9114 118.655 84.7493C121.205 73.5566 123.94 62.3786 127.848 51.5685C129.72 46.5182 131.549 41.2833 134.841 36.9526C140.502 30.6495 149.416 38.6544 143.755 44.9576Z" fill="#052D48"/>
<path d="M176.535 105.901C176.338 106.115 176.446 105.539 176.249 106.127C176.262 107.267 177.473 107.753 178.404 108.068C178.461 108.113 178.624 108.147 178.577 108.204C178.41 108.408 178.134 108.493 177.925 108.654C177.594 108.907 177.27 109.17 176.957 109.445C175.385 110.823 174.089 112.341 172.787 113.971C169.981 117.754 167.971 122.057 166.494 126.516C166.139 127.587 165.838 128.675 165.51 129.755C164.011 135.265 162.891 140.908 162.583 146.621C162.536 147.525 162.536 148.43 162.515 149.335C162.636 150.959 162.441 152.792 163.145 154.331C163.181 154.411 163.379 154.572 163.36 154.486C163.107 153.346 162.462 153.233 161.477 152.469C164.298 150.921 159.328 152.595 159.557 151.975C159.667 151.676 160.003 151.519 160.221 151.286C160.646 150.832 161.077 150.383 161.487 149.916C163.217 147.947 163.252 147.816 164.898 145.651C169.119 139.946 172.549 133.726 175.737 127.404C178.443 121.975 180.645 116.326 182.239 110.476C182.57 108.594 183.28 106.519 183.139 104.643C183.862 108.878 183.306 107.857 192.917 108.575C193.547 108.619 194.524 105.684 194.31 106.966C194.258 107.287 194.184 107.604 194.135 107.926C194.068 108.366 194.018 108.809 193.962 109.25C193.35 114.688 192.831 120.136 192.284 125.581C191.651 132.18 190.993 138.783 191.243 145.418C191.776 143.265 191.135 148.455 191.783 147.906C191.998 147.724 191.77 147.31 191.614 147.079C191.224 146.516 190.663 146.094 190.187 145.601C197.893 149.121 192.916 160.019 185.21 156.499C184.132 155.732 182.888 155.156 181.977 154.197C179.856 151.963 179.571 148.7 179.269 145.835C179.235 144.804 179.177 143.773 179.169 142.742C179.123 136.602 179.849 130.492 180.364 124.384C180.925 118.796 181.454 113.204 182.091 107.624C182.275 106.323 183.142 99.7659 184.874 99.6943C194.654 99.2901 194.132 99.3315 195.092 103.825C195.24 107.153 194.582 110.431 193.791 113.651C191.961 120.262 189.509 126.668 186.431 132.805C182.902 139.784 179.096 146.643 174.414 152.929C172.396 155.554 170.385 158.263 167.901 160.481C166.353 161.864 164.302 163.42 162.213 163.876C160.913 164.159 159.553 163.958 158.223 163.999C157.031 163.413 155.708 163.039 154.646 162.241C153.796 161.601 153.18 160.679 152.611 159.78C150.698 156.755 150.626 152.436 150.538 148.994C150.571 147.879 150.576 146.763 150.641 145.65C151.023 139.076 152.302 132.58 154.054 126.243C154.449 124.964 154.81 123.674 155.239 122.405C157.169 116.697 159.83 111.228 163.485 106.419C164.166 105.589 164.817 104.733 165.529 103.93C167.889 101.27 170.954 98.3887 174.292 97.0155C175.179 96.6504 176.125 96.4482 177.041 96.1647C177.939 96.1318 178.842 95.9647 179.735 96.0657C182.906 96.4245 185.568 98.3565 187.039 101.15C187.339 101.721 187.543 102.339 187.795 102.933C187.927 103.502 188.104 104.062 188.192 104.639C188.57 107.133 188.067 109.64 186.924 111.866C182.706 119.213 172.317 113.248 176.535 105.901Z" fill="#052D48"/>
<path d="M216.636 99.6678C216.076 103.159 215.7 106.677 215.343 110.194C214.686 117.599 213.914 124.992 212.912 132.359C212.186 137.648 211.263 142.906 210.388 148.172C210.263 148.791 209.631 153.989 208.768 153.86C197.291 152.148 197.639 153.3 197.996 148.387C198.595 142.375 199.863 136.459 201.228 130.582C202.845 123.996 204.925 117.511 207.695 111.314C208.221 110.138 208.798 108.986 209.349 107.822C211.479 103.619 213.821 99.518 216.521 95.6526C218.141 93.3346 218.512 92.9463 220.252 90.786C222.751 88.1067 225.33 85.0798 228.582 83.2654C229.188 82.9275 229.837 82.6733 230.465 82.3772C231.371 82.2093 232.264 81.8225 233.184 81.8732C236.13 82.0357 237.796 82.9087 239.57 85.297C241.257 87.5674 241.222 90.7152 241.341 93.3742C241.2 100.501 240.186 107.581 239.24 114.636C238.192 122.297 237.134 129.957 236.278 137.642C235.888 141.808 235.239 146.022 235.793 150.201C235.835 150.285 235.933 150.544 235.917 150.452C235.34 146.872 231.915 146.974 229.173 147.127C228.745 147.151 228.409 147.514 228.027 147.708C234.111 141.814 242.448 150.419 236.363 156.313C235.564 156.911 234.932 157.858 233.966 158.107C232.21 158.559 230.276 158.825 228.533 158.329C226.276 157.686 225.027 155.458 224.327 153.486C224.112 152.879 224.038 152.232 223.894 151.605C223.328 146.456 223.762 141.445 224.37 136.314C225.238 128.541 226.302 120.791 227.365 113.043C228.223 106.653 229.13 100.247 229.367 93.7986C229.354 93.291 229.339 92.7836 229.338 92.2759C229.338 92.0922 229.182 91.6938 229.363 91.7247C229.64 91.7725 229.682 92.1976 229.902 92.372C231.65 93.7586 232.905 94.3817 235.083 93.432C235.065 93.0864 235.109 93.2538 234.424 93.726C234.102 93.9498 233.79 94.1878 233.489 94.4383C232.072 95.6159 230.785 96.9431 229.566 98.3215C225.892 102.838 222.75 107.738 220.17 112.964C219.689 113.971 219.187 114.968 218.728 115.985C216.223 121.548 214.357 127.378 212.897 133.296C211.665 138.585 210.512 143.906 209.941 149.314C209.536 154.027 210.325 147.865 198.975 146.957C198.183 146.894 198.394 148.438 198.052 149.154C197.984 149.297 198.119 148.846 198.147 148.691C198.269 148.023 198.469 146.808 198.569 146.208C199.425 141.058 200.329 135.915 201.041 130.743C202.027 123.511 202.775 116.252 203.424 108.982C203.828 105.021 204.239 101.052 204.927 97.1283C206.723 88.8491 218.431 91.3885 216.636 99.6678Z" fill="#052D48"/>
<path d="M268.937 53.4634C268.203 58.0029 267.302 62.5166 266.51 67.0477C265.023 76.0329 263.926 85.0769 262.758 94.1075C261.499 103.641 260.098 113.155 258.623 122.657C257.709 128.767 256.708 134.863 255.659 140.951C255.567 141.48 255.476 142.01 255.383 142.539C255.313 142.941 255.24 143.344 255.166 143.745C255.112 144.032 255.051 144.316 254.997 144.602C254.997 144.64 255.018 144.726 254.997 144.716C243.186 141.292 242.385 145.067 243.918 140.218C245.571 135.276 247.86 130.586 250.235 125.959C254.144 118.341 258.589 111.031 263.284 103.878C266.755 98.6904 270.703 93.8531 274.509 88.9147C275.278 87.9153 276.037 86.9071 276.751 85.8677C276.868 85.6984 276.981 85.5273 277.09 85.3528C277.123 85.2983 277.209 85.1281 277.177 85.183C277.1 85.3155 277.028 85.4516 276.953 85.586C275.906 91.1542 275.577 88.6128 285.395 93.0224C285.705 93.1617 285.933 92.6043 286.22 92.4218C286.263 92.3952 286.167 92.5072 286.138 92.5499C285.883 92.9357 285.626 93.3194 285.37 93.7041C283.212 96.9272 281.295 100.296 279.454 103.707C278.079 106.276 276.858 108.944 276.135 111.777C275.723 113.392 275.717 113.852 275.514 115.489C275.365 118.454 276.005 121.36 277.251 124.047C277.541 124.672 277.881 125.272 278.196 125.884C280.453 129.696 283.416 133.08 286.816 135.919C287.644 136.611 288.525 137.239 289.379 137.899C294.504 141.415 300.406 143.773 306.623 144.367C307.997 144.498 309.382 144.466 310.761 144.517C316.502 144.055 313.651 144.412 319.314 143.446C327.674 142.071 329.619 153.893 321.26 155.268C314.036 156.422 317.719 156.006 310.206 156.485C308.353 156.384 306.491 156.392 304.647 156.185C296.455 155.261 288.713 152.069 282.004 147.341C280.913 146.482 279.791 145.663 278.733 144.764C274.24 140.946 270.379 136.378 267.479 131.242C267.02 130.305 266.518 129.388 266.101 128.432C264.1 123.839 263.222 118.881 263.641 113.885C263.775 112.948 263.869 112.004 264.042 111.074C264.893 106.47 266.704 102.122 268.912 98.0157C270.934 94.2734 273.043 90.5784 275.412 87.042C275.771 86.5089 278.379 82.6706 279.028 82.8738C289.57 86.1702 288.963 84.5157 288.005 90.2121C286.966 92.404 285.471 94.3137 283.998 96.2311C280.374 100.929 276.616 105.531 273.298 110.457C268.832 117.252 264.607 124.198 260.891 131.436C258.818 135.463 256.81 139.538 255.342 143.831C253.816 148.658 255.215 145.444 243.174 142.785C243.01 142.749 243.228 142.453 243.259 142.288C243.645 140.213 243.041 143.627 243.595 140.486C243.688 139.964 243.777 139.441 243.868 138.918C244.906 132.895 245.897 126.866 246.8 120.822C248.259 111.419 249.646 102.005 250.892 92.5718C252.083 83.3652 253.203 74.1453 254.724 64.9859C255.469 60.7306 256.28 56.4863 257.036 52.2339C257.906 43.807 269.824 45.038 268.953 53.4648L268.937 53.4634Z" fill="#052D48"/>
<path d="M194.845 199.47C194.874 199.462 194.948 199.429 194.937 199.456C194.882 199.596 194.774 199.708 194.701 199.839C194.348 200.47 194.016 201.153 193.75 201.819C193.22 203.148 192.886 204.332 192.454 205.715C191.204 210.463 190.303 215.322 190.058 220.233C190.01 221.19 190.022 222.148 190.001 223.106C190.179 226.268 190.221 230.6 191.927 233.408C192.063 233.633 192.276 233.801 192.45 233.998C193.545 234.334 191.923 233.131 191.95 233.044C192.008 232.861 192.218 232.768 192.359 232.638C192.657 232.364 192.964 232.1 193.266 231.831C195.953 229.236 197.847 225.967 199.086 222.459C199.399 221.573 199.64 220.663 199.918 219.765C201.057 214.954 201.518 209.956 200.848 205.038C200.732 204.189 200.54 203.353 200.385 202.51C199.459 198.729 197.851 196.133 195.049 193.506C194.661 193.155 191.918 191.287 191.415 191.986C191.463 192.117 191.438 192.125 191.65 192.118C192.314 192.096 192.6 191.529 192.914 191.027C193.371 189.786 193.207 188.472 192.38 187.417C191.972 186.898 191.813 187.145 192.055 186.876C195.487 186.99 198.841 186.158 202.162 185.403C207.269 184.146 212.358 182.827 217.551 181.971C221.253 181.469 225.389 181.325 228.452 183.889C229.196 184.512 229.737 185.343 230.38 186.069C230.749 186.853 231.195 187.604 231.486 188.419C232.751 191.95 232.247 196.127 231.917 199.774C231.25 205.323 230.293 210.831 229.591 216.376C228.895 221.2 228.677 226.058 228.968 230.919C229.104 232.022 229.134 232.664 229.42 233.698C229.484 233.932 229.566 234.163 229.68 234.377C229.702 234.417 229.821 234.466 229.806 234.424C229.46 233.45 229.123 233.439 228.21 232.669C228.557 231.538 224.91 232.455 224.966 232.187C224.997 232.043 225.123 231.937 225.211 231.818C225.438 231.511 225.686 231.219 225.91 230.91C226.233 230.463 226.537 230.003 226.851 229.549C230.068 224.51 232.481 219.012 234.93 213.573C237.504 207.827 239.879 201.996 242.122 196.115C243.234 193.25 244.093 190.299 245.066 187.388C247.173 181.857 248.648 184.724 256.998 189.038C257.117 189.1 256.424 192.933 256.382 193.166C255.543 197.816 254.947 202.501 254.512 207.204C254.155 211.743 253.932 216.358 254.721 220.869C254.842 221.557 255.029 222.232 255.182 222.913C255.68 224.285 256.12 226.174 257.571 226.916C257.785 227.025 258.078 226.954 258.295 226.924C261.48 226.325 264.472 224.996 267.482 223.839C272.908 221.757 278.473 219.993 284.166 218.795C285.395 218.536 286.636 218.332 287.87 218.101C293.667 217.192 299.553 216.699 305.42 217.078C306.471 217.146 307.518 217.274 308.567 217.372C313.018 217.981 317.53 218.982 321.476 221.226C322.173 221.623 322.822 222.099 323.496 222.536C324.051 223.004 324.607 223.473 325.162 223.942C331.508 229.554 323.571 238.529 317.225 232.916C317.081 232.766 316.937 232.616 316.793 232.466C314.091 230.451 310.686 229.785 307.417 229.297C306.594 229.217 305.773 229.108 304.947 229.05C299.971 228.703 294.978 229.131 290.057 229.881C289 230.075 287.938 230.244 286.885 230.463C281.729 231.535 276.691 233.136 271.78 235.023C267.255 236.762 262.497 238.999 257.523 238.747C256.5 238.694 255.497 238.438 254.484 238.283C251.903 237.267 251.318 237.281 249.17 235.459C246.13 232.881 244.504 229.181 243.469 225.43C243.258 224.414 243.005 223.407 242.837 222.384C241.949 217 242.141 211.508 242.582 206.094C243.054 201.058 243.687 196.04 244.588 191.061C244.726 190.288 244.8 189.502 244.986 188.739C244.998 188.669 244.95 188.925 245.017 188.947C248.586 190.138 252.078 191.674 255.781 192.339C255.919 192.364 256.792 190.363 256.426 191.196C255.394 194.261 254.498 197.372 253.317 200.385C250.989 206.487 248.524 212.535 245.854 218.495C243.091 224.625 240.349 230.812 236.647 236.447C234.309 239.727 231.291 243.851 226.825 244.113C225.676 244.18 224.544 243.8 223.403 243.644C222.533 243.096 221.569 242.673 220.792 241.999C217.959 239.544 217.377 235.088 217.007 231.61C216.694 226.015 216.904 220.421 217.705 214.869C218.393 209.462 219.303 204.088 219.985 198.681C220.136 197.058 220.285 195.456 220.294 193.825C220.294 193.572 220.282 193.319 220.294 193.067C220.282 192.961 220.213 192.768 220.316 192.748C220.445 192.724 220.514 192.92 220.612 193.007C220.871 193.193 221.106 193.419 221.389 193.567C221.63 193.692 221.898 193.765 222.164 193.815C222.243 193.821 222.441 193.808 222.389 193.751C222.024 193.341 219.806 193.832 219.478 193.797C214.523 194.59 209.686 195.925 204.809 197.089C199.785 198.222 194.658 199.369 189.487 198.579C187.344 197.995 186.569 197.988 184.705 196.617C182.611 195.076 181.298 192.627 181.186 190.028C181.15 189.201 181.361 188.381 181.449 187.558C181.73 186.845 181.93 186.094 182.293 185.419C183.639 182.915 186.15 181.129 188.857 180.382C189.546 180.192 190.266 180.137 190.971 180.014C191.733 180.02 192.498 179.961 193.256 180.031C197.126 180.386 200.525 182.451 203.409 184.923C204.017 185.528 204.655 186.103 205.232 186.736C208.767 190.616 211.051 195.348 212.191 200.456C212.389 201.638 212.639 202.813 212.786 204.003C213.587 210.492 212.957 217.074 211.339 223.389C210.944 224.609 210.602 225.847 210.155 227.049C208.12 232.52 204.945 237.495 200.539 241.354C198.428 242.876 197.33 243.933 194.762 244.692C191.091 245.778 187.704 245.217 184.653 242.89C183.846 242.274 183.235 241.435 182.526 240.708C181.995 239.861 181.393 239.055 180.933 238.168C178.508 233.478 178.202 227.992 178.025 222.832C178.057 221.644 178.052 220.456 178.117 219.27C178.432 213.461 179.506 207.711 181.03 202.105C182.404 197.797 183.858 193.319 187.29 190.173C193.864 184.83 201.42 194.127 194.845 199.47Z" fill="#052D48"/>
<path d="M121.92 183.596C121.081 187.702 120.478 191.851 119.894 195.999C118.669 204.299 118.624 212.687 118.858 221.053C119.228 228.531 119.738 236.091 121.671 243.358C121.981 244.523 122.382 245.663 122.737 246.815C123.696 249.317 124.731 251.891 126.557 253.911C127.133 254.549 127.812 255.144 128.693 255.275C128.91 255.307 129.128 255.212 129.345 255.181C133.56 252.759 136.392 249.102 139.335 245.329C144.835 237.618 148.965 229.076 152.677 220.396C155.349 214.033 157.204 207.386 158.745 200.674C159.542 197.412 159.928 194.062 160.797 190.819C162.528 186.307 161.47 187.942 172.534 190.615C173.151 190.764 172.84 191.848 172.946 192.474C173.268 194.374 173.322 196.359 173.451 198.276C173.866 205.36 173.72 212.46 173.622 219.55C173.461 229.218 173.079 238.88 172.797 248.545C172.564 257.527 172.399 266.511 172.085 275.491C171.828 281.487 171.347 287.504 169.996 293.366C169.752 294.421 169.45 295.462 169.177 296.51C168.025 300.313 166.476 304.049 164.059 307.237C162.534 309.25 162.063 309.517 160.21 311.185C159.487 311.679 158.803 312.236 158.041 312.668C154.858 314.471 151.067 315.278 147.456 314.462C146.519 314.25 145.638 313.844 144.728 313.535C143.878 313.001 142.961 312.559 142.176 311.933C139.683 309.941 138.096 307.109 137.353 304.035C136.676 301.237 136.89 300.164 136.953 297.295C137.714 291.109 140.276 285.342 143.745 280.204C144.48 279.114 145.299 278.084 146.077 277.024C150.042 272.044 154.713 267.627 160.037 264.12C161.013 263.477 162.035 262.905 163.034 262.298C166.53 260.37 170.272 258.901 174.216 258.22C176.199 257.878 176.784 257.911 178.735 257.827C180.608 257.811 182.461 258.069 184.298 258.408C192.624 259.976 190.405 271.75 182.08 270.181C181.109 269.991 180.129 269.839 179.138 269.801C175.532 269.858 172.387 270.83 169.212 272.563C168.456 273.011 167.682 273.431 166.945 273.909C162.665 276.684 158.907 280.192 155.705 284.153C155.103 284.956 154.47 285.737 153.899 286.563C151.551 289.951 149.683 293.748 148.923 297.819C148.779 299.365 148.706 300.902 149.148 302.399C149.966 303.415 151.507 302.68 152.368 302.127C152.668 301.89 152.988 301.676 153.268 301.416C155.534 299.319 156.651 296.317 157.592 293.458C157.813 292.63 158.06 291.808 158.256 290.974C159.482 285.762 159.875 280.404 160.112 275.071C160.426 266.114 160.588 257.153 160.821 248.194C161.102 238.591 161.481 228.99 161.642 219.384C161.736 212.616 161.882 205.84 161.497 199.078C161.452 198.398 161.414 197.718 161.362 197.039C161.299 196.206 161.116 195.376 161.145 194.54C161.145 194.494 161.203 194.632 161.248 194.633C172.339 194.663 171.083 198.039 172.348 194C172.087 194.885 171.941 195.78 171.77 196.688C171.351 198.918 170.914 201.146 170.421 203.361C168.713 210.766 166.648 218.095 163.691 225.112C159.557 234.75 154.932 244.224 148.749 252.74C147.693 254.07 146.691 255.444 145.583 256.731C141.74 261.193 136.859 265.827 130.777 266.792C129.377 267.014 127.942 266.814 126.524 266.825C125.247 266.432 123.906 266.205 122.693 265.645C117.956 263.458 114.88 258.782 112.808 254.197C112.232 252.924 111.785 251.596 111.274 250.295C110.844 248.863 110.363 247.446 109.986 246C107.892 237.97 107.269 229.639 106.882 221.382C106.638 212.347 106.707 203.29 108.031 194.327C108.641 189.997 109.273 185.666 110.146 181.38C111.713 173.054 123.487 175.271 121.92 183.596Z" fill="#052D48"/>
<path d="M185.45 277.748C188.205 276.745 190.911 275.608 193.638 274.531C199.632 272.195 205.689 270.021 211.749 267.862C219.382 265.179 227.118 262.777 234.987 260.884C236.726 260.466 238.476 260.095 240.22 259.701C250.067 257.566 260.057 256.214 270.051 254.992C278.46 253.963 279.914 265.856 271.505 266.884C261.909 268.057 252.315 269.346 242.858 271.387C233.685 273.454 224.613 275.929 215.769 279.149C209.836 281.262 203.906 283.39 198.037 285.675C195.115 286.828 192.219 288.051 189.26 289.107C181.229 291.802 177.418 280.443 185.45 277.748Z" fill="#052D48"/>
<path d="M129.86 46.8933C130.111 45.38 130.516 43.9062 131.032 42.4633C131.71 40.6347 132.802 39.025 133.971 37.4817C135.388 35.6922 136.956 34.0304 138.503 32.3548C140.043 30.6222 141.885 29.246 143.863 28.0614C146.309 26.6464 149.025 25.9883 151.802 25.6368C154.697 25.446 157.606 25.9696 160.136 27.4407C160.68 27.757 161.182 28.1413 161.705 28.4916C164.189 30.4652 165.96 33.1107 167.026 36.089C167.26 36.7421 167.431 37.4163 167.633 38.08C168.597 41.7493 168.813 45.5647 168.479 49.3369C168.406 50.1741 168.278 51.0054 168.177 51.8397C167.527 55.9471 166.252 59.9487 164.233 63.5937C163.823 64.3329 163.356 65.0387 162.917 65.7613C161.032 68.593 158.694 71.0749 155.998 73.1475C154.387 74.3864 153.516 74.8779 151.806 75.9511C147.117 78.7452 141.931 80.4535 136.701 81.8977C131.068 83.3482 125.281 83.9948 119.515 84.6508C113.908 85.2444 108.361 86.2514 102.864 87.4902C97.399 88.7962 92.1116 90.7049 86.9478 92.8999C82.9814 94.6452 79.2392 96.8476 75.6839 99.3153C73.2721 100.894 71.5392 103.138 69.854 105.426C68.0958 107.905 66.6792 110.592 65.4205 113.351C64.2932 115.82 63.8168 118.48 63.5471 121.16C63.3734 123.462 63.4887 125.807 64.1982 128.014C64.57 128.868 64.3713 128.459 64.7897 129.244C68.5308 136.845 57.7814 142.135 54.0403 134.534C53.0645 132.486 53.5223 133.557 52.6813 131.316C52.5143 130.702 52.3228 130.095 52.1805 129.476C51.4606 126.341 51.3847 123.083 51.6339 119.889C52.0733 115.927 52.8434 112.006 54.5278 108.362C56.1396 104.854 57.9628 101.441 60.2221 98.3006C62.6997 94.9633 65.372 91.78 68.8732 89.4586C73.1088 86.5423 77.5515 83.9218 82.2752 81.8678C88.1049 79.4063 94.0678 77.2536 100.237 75.8008C106.155 74.4743 112.126 73.3857 118.161 72.7467C123.313 72.1606 128.489 71.6078 133.53 70.3438C137.65 69.2221 141.752 67.9281 145.471 65.7823C148.238 64.0757 150.899 62.2249 152.725 59.4641C154.505 56.6663 155.799 53.6403 156.29 50.3374C156.689 47.3656 156.882 44.3456 156.124 41.4088C155.837 40.278 155.503 39.1142 154.713 38.2209C154.38 37.7323 153.759 37.5844 153.206 37.535C152.076 37.6479 150.961 37.8446 149.945 38.384C148.952 38.9478 148.057 39.6127 147.305 40.4835C146.004 41.8919 144.683 43.2866 143.475 44.7769C143.039 45.3301 142.613 45.8928 142.302 46.5283C141.972 47.4294 141.746 48.3538 141.596 49.304C139.891 57.6024 128.155 55.1918 129.86 46.8933Z" fill="#052D48"/>
<path d="M49.0565 200.044C43.133 201.732 37.0771 202.873 31.042 204.076C25.2598 205.358 19.4648 206.643 13.7916 208.355C12.9641 208.557 12.1779 208.879 11.3811 209.172C5.54888 211.313 2.52049 203.066 8.3527 200.924C9.31433 200.571 10.2712 200.202 11.2636 199.941C17.2083 198.162 23.2659 196.784 29.3249 195.459C35.2428 194.28 41.181 193.162 46.9889 191.505C53.0271 190.043 55.0947 198.582 49.0565 200.044Z" fill="#052D48"/>
<path d="M77.5376 217.207C73.7059 220.107 69.8316 222.94 66.0857 225.954C59.399 231.329 52.5032 236.465 45.2771 241.097C43.8322 242.024 42.3524 242.894 40.8899 243.792C36.8084 246.173 32.6764 248.464 28.5806 250.82C23.1948 253.918 18.8149 246.301 24.2006 243.204C28.2249 240.89 32.2818 238.635 36.2961 236.303C37.665 235.465 39.0507 234.653 40.4026 233.788C47.4114 229.299 54.0977 224.319 60.5802 219.106C64.302 216.117 68.1336 213.283 71.9536 210.424C76.75 206.475 82.3341 213.259 77.5376 217.207Z" fill="#052D48"/>
<path d="M81.4245 259.441C80.2777 262.476 78.6558 265.256 76.9413 267.999C74.2855 272.065 71.5473 276.068 68.9527 280.174C68.1701 281.451 67.3835 282.725 66.6296 284.019C63.4974 289.384 55.9099 284.955 59.0417 279.589C59.8499 278.208 60.6853 276.844 61.525 275.481C64.1134 271.385 66.8393 267.387 69.4953 263.335C70.4161 261.868 71.3734 260.416 72.1153 258.847C72.4199 258.203 72.8672 257.05 73.15 256.403C73.2816 256.103 73.4273 255.809 73.5658 255.512C76.3444 249.955 84.2028 253.885 81.4245 259.441Z" fill="#052D48"/>
<path d="M300.163 41.5143C302.062 39.0156 304.188 36.6986 306.192 34.2855C307.09 33.2042 308.808 31.015 309.689 29.898C311.482 27.5285 310.626 28.6702 312.258 26.4746C315.964 21.4884 323.016 26.7298 319.309 31.7159C317.596 34.0214 318.503 32.8116 316.585 35.3429C313.493 39.2582 310.239 43.0356 307.098 46.9085C303.284 51.8125 296.348 46.4183 300.163 41.5143Z" fill="#052D48"/>
<path d="M313.433 80.4983C319.817 76.1579 326.639 72.5137 333.555 69.1056C340.666 65.9134 347.942 63.115 355.128 60.0975C356.562 59.4457 358.035 58.881 359.421 58.1291C364.909 55.2157 369.029 62.9758 363.542 65.8892C361.91 66.7445 360.22 67.4683 358.53 68.1982C351.505 71.1481 344.395 73.8923 337.433 76.9891C331.001 80.1488 324.669 83.54 318.704 87.5271C313.734 91.2547 308.462 84.2259 313.433 80.4983Z" fill="#052D48"/>
<path d="M334.785 114.356C340.449 113.922 346.084 113.162 351.727 112.513C352.648 112.403 353.569 112.292 354.49 112.182C360.659 111.443 361.703 120.167 355.535 120.906C354.6 121.018 353.666 121.13 352.731 121.241C346.943 121.908 341.161 122.686 335.35 123.123C329.151 123.523 328.585 114.755 334.785 114.356Z" fill="#052D48"/>
<path d="M19.8585 149.959C22.4425 149.684 25.0434 149.581 27.6407 149.616C30.2127 149.713 32.7368 150.214 35.2684 150.631C36.0049 150.739 35.7166 150.751 36.1308 150.711C42.3391 150.949 42.0022 159.729 35.7941 159.491C34.3881 159.405 35.0391 159.477 33.8384 159.3C31.7298 158.952 29.6305 158.524 27.4919 158.401C25.3594 158.355 23.2251 158.469 21.1009 158.657C14.9507 159.536 13.7083 150.838 19.8585 149.959Z" fill="#052D48"/>
<path d="M34.6716 40.7473C37.259 43.6175 40.0878 46.2558 42.8059 48.9999C45.9306 52.4168 49.3867 55.4843 52.8913 58.4995C53.2207 58.765 53.55 59.0306 53.8793 59.2961C58.7089 63.204 53.1822 70.0342 48.3526 66.1263C47.9554 65.8041 47.5581 65.4818 47.1612 65.1596C43.4797 61.9918 39.8531 58.763 36.5627 55.1817C33.7189 52.3084 30.754 49.5499 28.0593 46.533C23.9683 41.8575 30.5806 36.0718 34.6716 40.7473Z" fill="#052D48"/>
<path d="M75.9137 12.8909C77.121 17.1394 78.1455 21.4387 79.2524 25.7147C80.2491 29.0772 81.0802 32.4885 82.1332 35.8339C83.9967 41.7604 75.615 44.3958 73.7517 38.4692C72.6553 34.9797 71.7791 31.4253 70.7468 27.9165C69.7171 23.9386 68.7223 19.9522 67.687 15.9759C65.5055 10.1588 73.732 7.07381 75.9137 12.8909Z" fill="#052D48"/>
<path d="M206.722 11.2004C206.127 15.6419 205.585 20.0831 205.208 24.5492C204.921 28.4474 204.722 32.3521 204.63 36.2597C204.61 37.3276 204.61 36.82 204.61 37.7825C204.558 43.995 195.772 43.9203 195.824 37.7078C195.845 36.6587 195.824 37.2104 195.845 36.0525C195.942 31.9666 196.148 27.8837 196.451 23.8079C196.864 18.9519 197.435 14.1161 198.143 9.29448C199.49 3.22973 208.067 5.13572 206.719 11.2004H206.722Z" fill="#052D48"/>
<path d="M243.169 28.2938C242.382 30.713 241.573 33.1229 240.613 35.4797C240.077 36.7773 240.321 36.165 239.875 37.3143C237.619 43.1031 229.433 39.9131 231.688 34.1244C232.198 32.8187 231.934 33.477 232.482 32.1495C233.378 29.9786 234.097 27.7442 234.834 25.5155C236.799 19.6216 245.134 22.3999 243.169 28.2938Z" fill="#052D48"/>
<path d="M131.067 4.04598C131.211 5.76622 131.613 7.44559 132.061 9.10764C133.673 15.1076 125.188 17.3872 123.576 11.3873C123.039 9.38462 122.561 7.35789 122.369 5.28853C121.49 -0.861738 130.188 -2.10426 131.067 4.04598Z" fill="#052D48"/>
<path d="M248.453 311.434C249.309 315.271 250.151 319.111 250.973 322.956C252.271 329.031 243.679 330.867 242.38 324.792C241.6 321.141 240.79 317.497 240.005 313.848C238.298 307.875 246.746 305.461 248.453 311.434Z" fill="#052D48"/>
<path d="M286.167 284.811C289.438 287.998 292.573 291.312 295.636 294.698C299.523 299.061 303.12 303.67 306.932 308.097C308.821 310.291 310.753 312.448 312.658 314.629C314.935 317.241 317.219 319.851 319.57 322.397C323.784 326.963 317.326 332.92 313.113 328.354C310.71 325.747 308.367 323.083 306.04 320.408C304.101 318.189 302.136 315.993 300.214 313.76C296.469 309.409 292.931 304.882 289.118 300.59C286.005 297.144 282.784 293.808 279.496 290.529C275.453 285.812 282.124 280.094 286.167 284.811Z" fill="#052D48"/>
<path d="M318.018 263.922C322.463 267.282 327.017 270.495 331.542 273.747C332.236 274.241 332.931 274.736 333.625 275.23C338.686 278.832 333.593 285.99 328.53 282.388C327.825 281.886 327.119 281.384 326.414 280.881C321.83 277.587 317.218 274.331 312.715 270.928C307.762 267.178 313.064 260.173 318.018 263.922Z" fill="#052D48"/>
<path d="M317.219 190.797C320.545 192.234 324.003 193.332 327.467 194.383C332.245 195.869 337.046 197.275 341.86 198.638C342.453 198.803 343.045 198.967 343.638 199.132C349.625 200.792 347.276 209.259 341.29 207.598C340.682 207.429 340.074 207.261 339.466 207.092C334.598 205.713 329.744 204.292 324.913 202.789C321.378 201.713 317.829 200.615 314.44 199.132C308.546 197.168 311.325 188.832 317.219 190.797Z" fill="#052D48"/>
<path d="M361.869 205.141C363.836 205.999 365.883 206.669 367.918 207.347C373.811 209.315 371.028 217.649 365.135 215.681C362.784 214.895 360.421 214.117 358.156 213.103C352.526 210.478 356.238 202.515 361.869 205.141Z" fill="#052D48"/>
<path d="M206.216 313.242C205.631 315.751 204.969 318.24 204.363 320.743C204.06 322.093 204.197 321.448 203.951 322.679C202.729 328.771 194.114 327.042 195.336 320.951C195.634 319.474 195.474 320.233 195.823 318.676C196.417 316.227 197.062 313.79 197.639 311.336C198.986 305.272 207.563 307.178 206.216 313.242Z" fill="#052D48"/>
<path d="M113.146 304.185C111.879 307.093 110.782 310.073 109.695 313.052C108.406 316.269 107.349 319.566 106.228 322.841C104.206 328.716 95.8982 325.856 97.9201 319.982C99.0715 316.66 100.125 313.303 101.442 310.038C102.699 306.598 103.935 303.132 105.518 299.826C108.6 294.432 116.229 298.791 113.146 304.185Z" fill="#052D48"/>
<path d="M6.88871 92.5528C10.5645 93.7449 14.3337 94.6151 18.0595 95.6326C22.4742 97.0293 27.0011 97.9579 31.5438 98.8168C31.9616 98.8822 32.3797 98.9474 32.7975 99.0126C38.9339 99.9821 37.5627 108.661 31.4263 107.691C30.921 107.611 30.4159 107.53 29.9108 107.45C25.1388 106.547 20.3838 105.564 15.7437 104.108C11.8441 103.041 7.89724 102.135 4.05514 100.869C-1.82567 98.8657 1.00789 90.5493 6.88871 92.5528Z" fill="#052D48"/>
</svg>
